<svg width="131" height="58" viewBox="0 0 131 58" fill="none" xmlns="http://www.w3.org/2000/svg">
<path d="M130.452 44.9318C129.675 48.0483 127.164 50.6104 123.215 52.5587C119.267 54.5064 113.914 55.8237 107.523 56.4626C94.7431 57.7399 77.8704 56.2989 59.9388 51.828C42.0071 47.3572 26.4329 40.7083 15.7487 33.5807C10.4057 30.0163 6.29745 26.3399 3.7263 22.7669C1.15431 19.1927 0.140135 15.7517 0.917161 12.6352C1.69419 9.51875 4.20508 6.95669 8.154 5.00833C12.1016 3.06061 17.4549 1.7433 23.8459 1.10449C36.6257 -0.172896 53.4984 1.26814 71.43 5.739C89.3617 10.2099 104.936 16.8588 115.62 23.9864C120.963 27.5508 125.071 31.2271 127.643 34.8002C130.214 38.3744 131.229 41.8153 130.452 44.9318Z" stroke="#222326" stroke-width="0.5"/>
</svg>
