<svg width="289" height="275" viewBox="0 0 289 275" fill="none" xmlns="http://www.w3.org/2000/svg">
<path d="M216.752 16.6848C199.796 -3.78972 174.79 1.90216 144.58 0.765015C130.23 0.224855 114.091 0.393399 104.221 2.37967C81.8207 6.88786 61.0043 29.0958 64.9128 53.051C67.543 69.1721 76.6364 85.1446 72.4491 101.999C69.4228 114.18 57.8059 117.44 47.0997 120.44C16.6749 128.966 10.3813 141.305 2.83039 168.899C-2.17422 187.187 3.8225 207 11.9017 224.368C23.5157 249.335 53.1191 272.973 81.1843 274.35C112.429 275.884 158.195 265.505 185.408 249.532C206.114 237.377 236.151 215.549 239.789 189.553C243.168 165.415 204.842 158.563 201.936 140.433C199.031 122.304 212.471 97.1739 216.495 87.6936C224.859 67.989 232.143 35.2694 216.752 16.6848Z" stroke="#E5D5C8" stroke-linecap="round" stroke-linejoin="round"/>
<path d="M276.383 38.6926C261.344 20.614 230.687 13.675 203.588 19.5297C175.759 25.5421 135.25 48.474 140.888 82.8731C143.221 97.1077 142.084 106.512 138.37 121.394C135.686 132.149 125.383 135.029 115.887 137.678C88.9025 145.206 83.3206 156.101 76.6234 180.465C72.1847 196.613 77.5034 214.108 84.669 229.444C94.9698 251.489 121.226 272.36 146.118 273.577L147.263 273.633C174.68 274.975 205.11 276.465 229.624 263.854C288.604 233.513 242.855 185.399 253.535 135.571C261.681 97.5621 309.665 78.7018 276.383 38.6926Z" stroke="#E5D5C8" stroke-linecap="round" stroke-linejoin="round"/>
</svg>
