<svg width="22" height="22" viewBox="0 0 22 22" fill="none" xmlns="http://www.w3.org/2000/svg">
<g clip-path="url(#clip0_1307_2014)">
<path fill-rule="evenodd" clip-rule="evenodd" d="M11 0C17.0711 0 22 4.92895 22 11C22 17.0711 17.0711 22 11 22C4.92895 22 0 17.0711 0 11C0 4.92895 4.92895 0 11 0ZM11 4.125C9.13288 4.125 8.89874 4.13291 8.16544 4.16638C7.43368 4.19977 6.93391 4.316 6.49657 4.48594C6.0445 4.66164 5.66109 4.89672 5.27888 5.27893C4.89668 5.66113 4.66159 6.04454 4.48589 6.49662C4.31595 6.93391 4.19977 7.43368 4.16634 8.16544C4.13291 8.89874 4.125 9.13288 4.125 11C4.125 12.8671 4.13291 13.1013 4.16634 13.8346C4.19977 14.5663 4.31595 15.0661 4.48589 15.5034C4.66159 15.9555 4.89668 16.3389 5.27888 16.7211C5.66109 17.1033 6.0445 17.3384 6.49657 17.5141C6.93391 17.684 7.43368 17.8002 8.16544 17.8336C8.89874 17.8671 9.13288 17.875 11 17.875C12.8671 17.875 13.1013 17.8671 13.8346 17.8336C14.5663 17.8002 15.0661 17.684 15.5034 17.5141C15.9555 17.3384 16.3389 17.1033 16.7211 16.7211C17.1033 16.3389 17.3384 15.9555 17.5141 15.5034C17.684 15.0661 17.8002 14.5663 17.8336 13.8346C17.8671 13.1013 17.875 12.8671 17.875 11C17.875 9.13288 17.8671 8.89874 17.8336 8.16544C17.8002 7.43368 17.684 6.93391 17.5141 6.49662C17.3384 6.04454 17.1033 5.66113 16.7211 5.27893C16.3389 4.89672 15.9555 4.66164 15.5034 4.48594C15.0661 4.316 14.5663 4.19977 13.8346 4.16638C13.1013 4.13291 12.8671 4.125 11 4.125ZM11 5.36375C12.8357 5.36375 13.0531 5.37075 13.7781 5.40384C14.4484 5.43443 14.8124 5.54641 15.0547 5.64055C15.3756 5.76525 15.6046 5.91426 15.8452 6.15484C16.0858 6.39538 16.2348 6.62445 16.3594 6.94534C16.4536 7.1876 16.5656 7.55159 16.5962 8.2219C16.6292 8.94687 16.6363 9.16429 16.6363 11C16.6363 12.8357 16.6292 13.0531 16.5962 13.7781C16.5656 14.4484 16.4536 14.8124 16.3594 15.0547C16.2348 15.3756 16.0858 15.6046 15.8452 15.8452C15.6046 16.0858 15.3756 16.2348 15.0547 16.3594C14.8124 16.4536 14.4484 16.5656 13.7781 16.5962C13.0533 16.6292 12.8358 16.6363 11 16.6363C9.16416 16.6363 8.94678 16.6292 8.2219 16.5962C7.55159 16.5656 7.1876 16.4536 6.94534 16.3594C6.62441 16.2348 6.39538 16.0858 6.1548 15.8452C5.91422 15.6046 5.76525 15.3756 5.64055 15.0547C5.54641 14.8124 5.43439 14.4484 5.40379 13.7781C5.37071 13.0531 5.36375 12.8357 5.36375 11C5.36375 9.16429 5.37071 8.94687 5.40379 8.2219C5.43439 7.55159 5.54641 7.1876 5.64055 6.94534C5.76525 6.62445 5.91422 6.39538 6.1548 6.15484C6.39538 5.91426 6.62441 5.76525 6.94534 5.64055C7.1876 5.54641 7.55159 5.43443 8.2219 5.40384C8.94687 5.37075 9.16429 5.36375 11 5.36375ZM11 7.4696C9.05021 7.4696 7.4696 9.05021 7.4696 11C7.4696 12.9498 9.05021 14.5304 11 14.5304C12.9498 14.5304 14.5304 12.9498 14.5304 11C14.5304 9.05021 12.9498 7.4696 11 7.4696ZM11 13.2917C9.73436 13.2917 8.70835 12.2656 8.70835 11C8.70835 9.73436 9.73436 8.70835 11 8.70835C12.2656 8.70835 13.2917 9.73436 13.2917 11C13.2917 12.2656 12.2656 13.2917 11 13.2917ZM15.4949 7.33012C15.4949 7.78577 15.1255 8.15508 14.6699 8.15508C14.2143 8.15508 13.8449 7.78577 13.8449 7.33012C13.8449 6.87448 14.2143 6.50513 14.6699 6.50513C15.1255 6.50513 15.4949 6.87448 15.4949 7.33012Z" fill="#D0CBC9"/>
</g>
<defs>
<clipPath id="clip0_1307_2014">
<rect width="22" height="22" fill="white"/>
</clipPath>
</defs>
</svg>
