<svg width="22" height="22" viewBox="0 0 22 22" fill="none" xmlns="http://www.w3.org/2000/svg">
<g clip-path="url(#clip0_1307_2012)">
<path d="M10.9999 0.0224609C4.92482 0.0224609 0 4.94741 0 11.0224C0 15.6826 2.89932 19.6664 6.99132 21.2692C6.89507 20.3988 6.80823 19.0604 7.02952 18.1102C7.22932 17.2518 8.31935 12.6425 8.31935 12.6425C8.31935 12.6425 7.99025 11.9836 7.99025 11.0094C7.99025 9.47984 8.87679 8.33794 9.9807 8.33794C10.9191 8.33794 11.3725 9.04259 11.3725 9.88744C11.3725 10.8313 10.7716 12.2423 10.4614 13.5499C10.2023 14.6448 11.0105 15.5377 12.0903 15.5377C14.0455 15.5377 15.5483 13.4762 15.5483 10.5005C15.5483 7.86679 13.6558 6.02532 10.9536 6.02532C7.82371 6.02532 5.98654 8.37288 5.98654 10.7989C5.98654 11.7444 6.3507 12.7581 6.80518 13.3092C6.89498 13.4181 6.90822 13.5137 6.88149 13.6247C6.79791 13.9722 6.61242 14.7193 6.57594 14.8722C6.52794 15.0736 6.41648 15.1163 6.20808 15.0193C4.8342 14.3798 3.9753 12.3713 3.9753 10.7579C3.9753 7.288 6.49636 4.10144 11.2434 4.10144C15.0593 4.10144 18.0247 6.82046 18.0247 10.4544C18.0247 14.2455 15.6344 17.2964 12.3167 17.2964C11.2021 17.2964 10.1542 16.7173 9.79554 16.0333C9.79554 16.0333 9.24391 18.1336 9.11019 18.6483C8.86175 19.6037 8.19143 20.8014 7.74301 21.5319C8.77233 21.8506 9.86605 22.0224 10.9999 22.0224C17.0752 22.0224 22 17.0977 22 11.0224C22 4.94741 17.0752 0.0224609 10.9999 0.0224609Z" fill="#D0CBC9"/>
</g>
<defs>
<clipPath id="clip0_1307_2012">
<rect width="22" height="22" fill="white"/>
</clipPath>
</defs>
</svg>
