<svg width="22" height="22" viewBox="0 0 22 22" fill="none" xmlns="http://www.w3.org/2000/svg">
<g clip-path="url(#clip0_1307_2018)">
<path fill-rule="evenodd" clip-rule="evenodd" d="M11 0C17.0711 0 22 4.92895 22 11C22 17.0711 17.0711 22 11 22C4.92895 22 0 17.0711 0 11C0 4.92895 4.92895 0 11 0ZM9.0625 16.8505C13.9301 16.8505 16.5917 12.8171 16.5917 9.32143C16.5917 9.20618 16.5917 9.09094 16.5862 8.98116C17.102 8.60802 17.552 8.14155 17.9087 7.60925C17.4368 7.81778 16.9264 7.96048 16.3886 8.02631C16.9374 7.69704 17.3544 7.1812 17.552 6.56111C17.0416 6.86293 16.4764 7.08241 15.8727 7.20315C15.3898 6.68731 14.7039 6.36904 13.9411 6.36904C12.4813 6.36904 11.296 7.55438 11.296 9.01411C11.296 9.22264 11.318 9.42567 11.3673 9.61774C9.16678 9.508 7.21862 8.45436 5.91259 6.85193C5.68756 7.24157 5.55586 7.69703 5.55586 8.17996C5.55586 9.0964 6.02233 9.90859 6.73574 10.3805C6.30218 10.3696 5.89609 10.2488 5.5394 10.0513V10.0842C5.5394 11.3683 6.45034 12.4329 7.66313 12.6799C7.44365 12.7402 7.20766 12.7732 6.96622 12.7732C6.79607 12.7732 6.63145 12.7567 6.46684 12.7238C6.80157 13.7774 7.77838 14.5402 8.9363 14.5622C8.03082 15.2701 6.88939 15.6927 5.64914 15.6927C5.43512 15.6927 5.22659 15.6817 5.01806 15.6542C6.17598 16.4115 7.56985 16.8505 9.0625 16.8505Z" fill="#D0CBC9"/>
</g>
<defs>
<clipPath id="clip0_1307_2018">
<rect width="22" height="22" fill="white"/>
</clipPath>
</defs>
</svg>
